# xmcd
#
# Track frame offsets:
#        150
#        20477
#        38337
#        55265
#        70362
#        88975
#        105327
#        126767
#        148822
#        169050
#        193577
#        209690
#        230305
#        256335
#        272232
#        289890
#        311320
#
# Disc length: 4359 seconds
#
# Revision: 6
# Processed by: cddbd v1.5.1PL0 Copyright (c) Steve Scherf et al.
# Submitted via: ExactAudioCopy v0.95a5
#
DISCID=f9110511
DTITLE=Various Artist - Grammy Nominees 2001
DYEAR=2001
DGENRE=Pop
TTITLE0=Destiny's Child - Say My Name
TTITLE1=Macy Gray - I Try
TTITLE2=Madonna - Music
TTITLE3='N Sync - Bye Bye Bye
TTITLE4=U2 - Beautiful Day
TTITLE5=Beck - Sexx Laws
TTITLE6=Eminem - The Real Slim Shady
TTITLE7=Radiohead - Optimistic
TTITLE8=Paul Simon - You're The One
TTITLE9=Steely Dan - Cousin Dupree
TTITLE10=Christina Aguilera - What A Girl Wants
TTITLE11=Aimee Mann - Save Me
TTITLE12=Joni Mitchell - Both Sides Now
TTITLE13=Britney Spears - Oops!...I Did It Again
TTITLE14=Backstreet Boys - Show Me The Meaning Of Being Lonely
TTITLE15=Barenaked Ladies - Pinch Me
TTITLE16=The Corrs - Breathless
EXTD=\n YEAR: 2001 ID3G: 13
EXTT0=
EXTT1=
EXTT2=
EXTT3=
EXTT4=
EXTT5=
EXTT6=
EXTT7=
EXTT8=
EXTT9=
EXTT10=
EXTT11=
EXTT12=
EXTT13=
EXTT14=
EXTT15=
EXTT16=
PLAYORDER=
